<?xml version="1.0" encoding="utf-8"?>
<!-- Generator: Adobe Illustrator 26.0.1, SVG Export Plug-In . SVG Version: 6.00 Build 0)  -->
<svg version="1.1" id="Layer_1" xmlns="http://www.w3.org/2000/svg" xmlns:xlink="http://www.w3.org/1999/xlink" x="0px" y="0px"
	 viewBox="0 0 40 40" style="enable-background:new 0 0 40 40;" xml:space="preserve">
<style type="text/css">
	.st0{fill:none;stroke:#C8C8C8;stroke-width:2;stroke-miterlimit:10;}
</style>
<path fill="#c8c8c8" d="M33,18.3c-0.7-2.9-3.3-5-6.4-5c-0.8,0-1.6,0.2-2.4,0.4c-1.8-3.1-5.2-5.2-9-5.2c-5.8,0-10.4,4.7-10.4,10.4
	c0,0.1,0,0.2,0,0.2C3.1,20.5,2,22.5,2,24.7c0,3.7,3,6.6,6.6,6.6c0.1,0,0.1,0,0.2,0h22.4c0.1,0,0.1,0,0.2,0c3.7,0,6.6-3,6.6-6.6
	C38,21.7,35.9,19.1,33,18.3z"/>
</svg>
