<?xml version="1.0" encoding="utf-8"?>
<!-- Generator: Adobe Illustrator 26.0.1, SVG Export Plug-In . SVG Version: 6.00 Build 0)  -->
<svg version="1.1" id="Layer_1" xmlns="http://www.w3.org/2000/svg" xmlns:xlink="http://www.w3.org/1999/xlink" x="0px" y="0px"
	 viewBox="0 0 40 40" style="enable-background:new 0 0 40 40;" xml:space="preserve">
<style type="text/css">
	.st0{fill:#C8C8C8;}
	.st1{fill:none;stroke:#C8C8C8;stroke-width:2;stroke-miterlimit:10;}
</style>
<circle class="st0" cx="20" cy="29" r="2.5"/>
<path class="st0" d="M20.1,25h-0.2c-0.5,0-1-0.4-1-0.9l-0.8-9.9c-0.1-0.6,0.4-1.1,1-1.1h1.8c0.6,0,1,0.5,1,1.1l-0.8,9.9
	C21,24.6,20.6,25,20.1,25z"/>
<path class="st1" d="M18.3,6.9l-15.2,26c-0.8,1.3,0.2,3,1.7,3h30.4c1.5,0,2.5-1.7,1.7-3l-15.2-26C20.9,5.6,19.1,5.6,18.3,6.9z"/>
</svg>
